<svg width="200" height="164" viewBox="0 0 200 164" fill="none" xmlns="http://www.w3.org/2000/svg">
<path d="M40.6705 106.837C40.6705 106.837 36.6447 103.058 35.0968 102.054C33.5487 101.05 30.0763 99.6691 28.7793 99.5437C27.4824 99.4183 21.416 101.175 21.416 101.175C21.416 101.175 12.463 100.38 10.9569 101.426C9.45072 102.472 9.5763 103.56 10.2039 104.355C10.8314 105.15 13.2579 104.899 15.9355 104.94C18.613 104.982 19.3243 105.234 19.3243 105.234L15.4334 109.375L25.5161 112.178L31.666 111.948L33.8838 114.737L40.6705 106.837Z" fill="#F9A78D"/>
<path d="M9.97583 97.4808L10.2191 106.402L10.6509 107.511L15.0512 112.876L25.7882 112.168L17.2346 108.835L14.1931 106.524L13.0172 102.712C13.0172 102.712 13.3821 96.8316 9.97583 97.4808Z" fill="#F9A78D"/>
<path d="M10.7304 107.715H8.11574C8.11574 107.715 4.70393 102.103 1.58143 104.009L2.29919 105.118C2.29919 105.118 0.892185 104.481 0 105.665L8.60648 113.215H9.00241L18.1731 112.624L10.7304 107.715Z" fill="#F9A78D"/>
<path d="M12.2879 109.421C12.2848 109.447 12.0114 109.434 11.5477 109.452C11.0912 109.478 10.4137 109.508 9.73569 109.816L9.64806 109.856L9.59116 109.776C9.32599 109.401 8.99804 108.998 8.6614 108.578C7.96481 107.718 7.33468 106.94 6.80505 106.286C6.33331 105.696 6.04326 105.332 6.06758 105.309C6.09261 105.285 6.4309 105.612 6.93709 106.174C7.44404 106.735 8.12702 107.525 8.85256 108.424C9.19174 108.847 9.51234 109.249 9.78194 109.65L9.63755 109.61C10.3903 109.29 11.0805 109.301 11.5479 109.312C12.02 109.334 12.2912 109.396 12.2879 109.421Z" fill="#F57F62"/>
<path d="M30.8898 104.234C30.9121 104.313 29.4414 104.612 27.864 105.514C26.282 106.409 25.2737 107.521 25.2166 107.461C25.1945 107.441 25.4191 107.141 25.8517 106.717C26.2835 106.295 26.9368 105.761 27.7427 105.301C28.549 104.843 29.3423 104.555 29.926 104.4C30.511 104.244 30.8838 104.204 30.8898 104.234Z" fill="#F57F62"/>
<path d="M22.312 101.923C22.3609 101.973 21.7676 102.613 21.0805 103.436C20.3907 104.256 19.865 104.953 19.8066 104.913C19.7517 104.878 20.1926 104.111 20.8923 103.278C21.5895 102.443 22.2677 101.875 22.312 101.923Z" fill="#F57F62"/>
<path d="M13.3459 110.668C13.3396 110.674 13.2691 110.603 13.1406 110.463C12.9968 110.303 12.8133 110.099 12.5871 109.846C12.3431 109.568 12.0541 109.238 11.7223 108.859C11.5537 108.665 11.3745 108.458 11.1848 108.24C10.9982 108.021 10.7832 107.794 10.6029 107.515C10.2425 106.965 9.99467 106.25 9.99174 105.472C9.97699 104.711 9.96115 103.9 9.94479 103.048C9.91641 101.336 9.88549 99.4578 9.85291 97.4826L9.85107 97.3737L9.95271 97.3601C10.0424 97.3478 10.1396 97.3346 10.2368 97.3214C10.8701 97.2502 11.5472 97.4727 11.9724 97.9366C12.4009 98.3915 12.6403 98.9553 12.8029 99.504C13.1152 100.615 13.1651 101.707 13.1255 102.719L13.1209 102.68C13.5568 104.126 13.9447 105.414 14.272 106.499L14.2431 106.458C15.1652 107.179 15.9118 107.762 16.4539 108.185C16.6933 108.379 16.8873 108.535 17.0406 108.659C17.1726 108.769 17.2392 108.829 17.2345 108.835C17.2297 108.842 17.1536 108.794 17.0124 108.696C16.8522 108.581 16.6496 108.436 16.3994 108.257C15.8462 107.848 15.0842 107.285 14.143 106.589L14.1224 106.574L14.1141 106.548C13.7728 105.467 13.3678 104.184 12.9132 102.744L12.9078 102.727L12.9086 102.705C12.9388 101.722 12.8802 100.637 12.5743 99.5714C12.4167 99.0439 12.1838 98.5136 11.7975 98.1063C11.4133 97.6943 10.8386 97.5057 10.2595 97.5656C10.1702 97.5779 10.081 97.5901 9.99872 97.601L10.0984 97.4789C10.1236 99.4545 10.1477 101.333 10.1696 103.044C10.2403 104.739 9.97534 106.354 10.7478 107.422C10.9128 107.689 11.1178 107.914 11.3028 108.14C11.4872 108.363 11.6617 108.573 11.826 108.771C12.1456 109.16 12.4241 109.499 12.6592 109.785C12.8712 110.05 13.043 110.264 13.1778 110.432C13.2944 110.582 13.3524 110.663 13.3459 110.668Z" fill="#F57F62"/>
<path d="M9.0023 113.215C9.00579 113.227 8.8185 113.236 8.54523 113.084C8.27195 112.938 7.92358 112.659 7.53575 112.278C6.75793 111.515 5.81239 110.35 4.83879 109.017C3.86599 107.682 3.04122 106.436 2.46205 105.523C2.17298 105.066 1.94572 104.692 1.79416 104.43C1.64265 104.169 1.56694 104.019 1.58132 104.009C1.59565 104 1.69842 104.133 1.87449 104.378C2.07922 104.672 2.32303 105.021 2.60682 105.427C3.222 106.314 4.0678 107.542 5.03711 108.872C6.00703 110.2 6.92495 111.374 7.65969 112.156C8.02616 112.547 8.34841 112.838 8.59439 113.002C8.83877 113.171 9.00433 113.192 9.0023 113.215Z" fill="#F57F62"/>
<path d="M24.6681 107.456L19.9301 107.137L18.5142 103.255L18.2531 100.644C18.1255 99.3688 17.0588 98.3618 15.7768 98.3812L15.7307 98.3821L15.9966 104.78L16.9698 108.754L20.8192 111.025H25.5262L24.6681 107.456Z" fill="#F9A78D"/>
<path d="M24.6681 107.456L19.9301 107.137L18.5142 103.255L18.2531 100.644C18.1255 99.3688 17.0588 98.3618 15.7768 98.3812L15.7307 98.3821L15.9966 104.78L16.9698 108.754L20.8192 111.025" fill="#F9A78D"/>
<path d="M20.8194 111.025C20.815 111.032 20.7196 110.986 20.5411 110.889C20.3419 110.779 20.085 110.636 19.7663 110.459C19.0713 110.06 18.109 109.508 16.9259 108.829L16.8946 108.811L16.8855 108.775C16.5996 107.635 16.2617 106.29 15.8893 104.806L15.8868 104.796L15.8862 104.785C15.8026 102.861 15.708 100.685 15.6082 98.3868L15.6028 98.2647L15.7277 98.259C15.7704 98.2571 15.8184 98.2595 15.8663 98.2614C17.0575 98.2694 18.0714 99.199 18.306 100.262C18.3734 100.53 18.3852 100.793 18.4121 101.043C18.4367 101.296 18.4613 101.547 18.4854 101.795C18.5332 102.29 18.58 102.774 18.6255 103.244L18.6193 103.216C19.1376 104.662 19.6068 105.971 20.0139 107.106L19.9362 107.048C21.3757 107.162 22.5515 107.254 23.4 107.321C23.7876 107.357 24.0999 107.386 24.3411 107.409C24.556 107.432 24.6687 107.448 24.6682 107.456C24.6674 107.465 24.5536 107.466 24.3376 107.46C24.0957 107.45 23.7823 107.436 23.3932 107.42C22.5435 107.372 21.3659 107.306 19.9243 107.226L19.8668 107.223L19.8464 107.167C19.4269 106.036 18.9432 104.733 18.4092 103.293L18.4044 103.28L18.4029 103.266C18.3544 102.796 18.3046 102.313 18.2536 101.818C18.2281 101.57 18.2024 101.32 18.1764 101.066C18.1482 100.811 18.1346 100.555 18.0731 100.319C17.856 99.3517 16.9323 98.5126 15.861 98.5065C15.8179 98.5051 15.775 98.5027 15.7341 98.5046L15.8534 98.3769C15.9446 100.675 16.0307 102.851 16.1071 104.775L16.104 104.754C16.4592 106.241 16.7815 107.591 17.0542 108.733L17.0141 108.679C18.1808 109.387 19.1297 109.962 19.8149 110.377C20.1239 110.57 20.373 110.726 20.5664 110.847C20.7365 110.957 20.8236 111.018 20.8194 111.025Z" fill="#F57F62"/>
<path d="M126.149 31.9693C122.088 16.493 118.34 -1.51709 95.7115 0.101723C95.7115 0.101723 81.7668 2.78497 75.1445 13.0763C71.2493 19.1301 67.8745 45.2262 67.2032 65.8371V65.8366L67.2027 65.8475C67.1754 66.6866 67.5247 72.5367 67.5016 73.3574L127.399 78.3435H138.189C138.189 78.3435 137.513 67.4092 134.26 56.8035C131.097 46.4872 127.587 37.448 126.149 31.9693Z" fill="#17282F"/>
<path d="M92.7011 5.99907L94.1167 4.6499L109.415 10.815C111.628 10.9375 113.38 12.7331 113.447 14.9492L113.313 64.7944C113.332 68.1744 112.655 71.1018 110.614 73.7959L108.465 76.6323C103.567 83.1 93.4893 82.5678 89.611 75.4416C89.34 74.9438 89.1514 74.5068 89.0699 74.1527C88.9878 73.7082 88.8671 73.4159 88.8422 73.0379C88.3868 69.0276 88.3609 65.5505 88.3609 65.5505C88.0884 61.1476 87.9983 59.3411 87.9979 59.3821C87.9979 59.3821 78.6277 58.305 76.0948 46.2775C74.8352 40.2958 75.0728 32.0669 75.4269 23.9677C75.9167 12.759 83.6916 5.98823 92.7011 5.99907Z" fill="#F9A78D"/>
<path d="M96.6393 31.9642C96.6511 32.7868 97.3577 33.4547 98.2171 33.4576C99.0746 33.4609 99.7619 32.7985 99.7497 31.9759C99.7374 31.1533 99.0308 30.4844 98.1738 30.4811C97.3139 30.4778 96.6271 31.142 96.6393 31.9642Z" fill="#17282F"/>
<path d="M80.6657 32.3813C80.6779 33.2039 81.3846 33.8719 82.244 33.8747C83.1014 33.878 83.7883 33.2157 83.7765 32.3926C83.7642 31.5705 83.0571 30.9016 82.2001 30.8983C81.3407 30.895 80.6534 31.5592 80.6657 32.3813Z" fill="#17282F"/>
<path d="M77.0267 27.1713C77.2295 27.3641 78.3641 26.4336 80.0376 26.3539C81.7078 26.2507 82.9792 27.0502 83.1503 26.8357C83.2352 26.7405 83.0197 26.3846 82.4663 26.0221C81.9204 25.661 81.0035 25.3291 79.9617 25.3852C78.9194 25.4436 78.062 25.8712 77.5778 26.2889C77.0833 26.7098 76.9273 27.0851 77.0267 27.1713Z" fill="#17282F"/>
<path d="M93.6228 26.601C93.8449 26.7721 94.8791 25.7298 96.5342 25.4795C98.1846 25.2047 99.5315 25.8689 99.6799 25.6388C99.754 25.5351 99.506 25.2028 98.9153 24.8997C98.335 24.5961 97.3899 24.3599 96.3589 24.523C95.3284 24.688 94.5195 25.2018 94.0806 25.6671C93.6332 26.1362 93.5154 26.526 93.6228 26.601Z" fill="#17282F"/>
<path d="M88.161 39.5241C88.1643 39.4289 87.1155 39.3016 85.4189 39.1701C84.9894 39.1474 84.5807 39.0829 84.4944 38.7948C84.378 38.4913 84.5336 38.0217 84.716 37.5145C85.0658 36.4604 85.4321 35.3555 85.8163 34.1977C87.3384 29.4779 88.418 25.6049 88.2275 25.5455C88.0371 25.4861 86.6478 29.2635 85.1256 33.9832C84.7608 35.1466 84.411 36.2558 84.0796 37.3165C83.9419 37.8105 83.6916 38.3753 83.9419 39.0046C84.073 39.3181 84.3983 39.534 84.6759 39.5943C84.9536 39.6641 85.1945 39.6566 85.4066 39.6585C87.107 39.6651 88.1596 39.6198 88.161 39.5241Z" fill="#17282F"/>
<path d="M87.9978 59.3821C87.9978 59.3821 96.1805 59.499 104.018 54.2367C104.018 54.2367 100.356 62.8342 88.1647 62.3081L87.9978 59.3821Z" fill="#F57F62"/>
<path d="M93.3903 42.9267C92.9199 42.3572 92.1685 42.0438 91.4383 42.0023C90.3861 41.9419 89.6455 42.0749 89.0836 42.9003C88.8201 43.3562 88.8427 44.059 88.9657 44.2518C89.0883 44.4451 88.9968 44.4494 89.1845 44.5851C89.8638 45.0763 90.6472 45.3917 91.4571 45.5788C92.267 45.7655 93.2032 45.5718 93.6227 44.9142C93.9956 44.3306 93.8613 43.4952 93.3903 42.9267Z" fill="#F57F62"/>
<path d="M93.2206 18.9151C93.4351 19.3431 94.8771 18.9033 96.6458 18.8722C98.4131 18.8005 99.8976 19.155 100.066 18.7162C100.139 18.5073 99.8306 18.1213 99.1985 17.7719C98.5715 17.4226 97.6146 17.1459 96.5544 17.1756C95.4942 17.2072 94.5702 17.5386 93.9833 17.9233C93.3912 18.3084 93.1253 18.711 93.2206 18.9151Z" fill="#17282F"/>
<path d="M77.2679 24.1435C77.5809 24.5088 78.7141 24.0568 80.0991 23.9686C81.4808 23.8319 82.6716 24.0954 82.9219 23.6843C83.0308 23.4854 82.8267 23.1144 82.2959 22.7802C81.7722 22.4469 80.9123 22.1966 79.961 22.273C79.0107 22.3507 78.2027 22.7364 77.7402 23.1498C77.2697 23.5651 77.1288 23.9648 77.2679 24.1435Z" fill="#17282F"/>
<path d="M113.142 36.2214C113.142 36.2214 106.702 37.7785 97.5632 18.0982C94.4524 11.399 88.4104 4.64985 88.4104 4.64985L94.0791 3.83197C94.0791 3.83197 110.979 8.59271 111.263 8.80579C111.547 9.01886 115.526 17.5457 115.526 17.5457L113.142 36.2214Z" fill="#17282F"/>
<path d="M111.03 35.4337C110.987 34.5309 111.924 32.3497 112.809 32.1659C115.171 31.6756 119.472 31.6516 119.816 37.6964C120.285 45.9602 111.891 44.726 111.863 44.4899C111.841 44.3055 111.179 38.5515 111.03 35.4337Z" fill="#F9A78D"/>
<path d="M114.21 41.2165C114.245 41.1877 114.359 41.3088 114.609 41.4064C114.852 41.5017 115.265 41.5535 115.686 41.3678C116.542 40.9977 117.198 39.5698 117.153 38.0783C117.132 37.325 116.934 36.6179 116.633 36.0395C116.347 35.4497 115.932 35.0495 115.488 34.9967C115.045 34.9199 114.749 35.2008 114.661 35.4389C114.563 35.6765 114.625 35.8386 114.582 35.8547C114.56 35.8773 114.397 35.7269 114.444 35.3819C114.469 35.2159 114.555 35.0151 114.74 34.8454C114.929 34.6729 115.215 34.5743 115.524 34.5899C116.164 34.5979 116.771 35.1518 117.1 35.7858C117.465 36.4208 117.706 37.2151 117.73 38.0609C117.771 39.7292 117.008 41.3352 115.833 41.7487C115.26 41.933 114.765 41.7854 114.504 41.6044C114.236 41.4154 114.182 41.233 114.21 41.2165Z" fill="#F57F62"/>
<path d="M94.4562 43.2609C94.4312 43.4731 93.0194 43.4419 91.343 43.7663C89.663 44.0736 88.359 44.6162 88.2586 44.4277C88.1559 44.2641 89.3952 43.3774 91.2068 43.0427C93.0156 42.6957 94.4925 43.0709 94.4562 43.2609Z" fill="#17282F"/>
<path d="M159.038 107.303C159.038 107.303 165.959 101.375 167.965 101.217C169.97 101.058 175.246 102.039 175.246 102.039C175.246 102.039 178.578 102.068 180.234 101.861C182.728 101.549 184.434 101.809 185.434 102.114C185.933 102.266 186.558 103.509 185.088 104.355C184.466 104.713 178.414 105.122 178.414 105.122L193.556 109.447L191.59 111.07C191.328 111.285 191.003 111.409 190.664 111.421L168.862 112.194L167.864 114.631L159.038 107.303Z" fill="#F9A78D"/>
<path d="M175.565 107.308H182.637C182.637 107.308 185.117 104.014 186.014 102.642C186.799 101.442 187.744 101.089 188.569 101.373C188.784 101.446 188.959 101.607 189.071 101.804C189.238 102.095 189.243 102.452 189.084 102.748L185.975 108.553L187.604 108.002C187.604 108.002 190.87 104.805 191.503 104.067C192.136 103.328 194.458 100.214 196.517 102.483L193.667 105.65L196.517 103.644C196.517 103.644 198.786 101.692 200 104.014L191.526 111.16" fill="#F9A78D"/>
<path d="M168.203 104.378C168.2 104.371 168.297 104.338 168.486 104.281C168.675 104.23 168.95 104.122 169.327 104.087C170.068 103.962 171.199 103.982 172.503 104.418C173.152 104.638 173.843 104.946 174.543 105.357C174.892 105.563 175.247 105.787 175.602 106.036C175.779 106.162 175.957 106.289 176.139 106.419C176.31 106.541 176.522 106.703 176.662 106.776C178.451 106.915 180.499 107.036 182.645 107.187L182.545 107.228C183.205 106.443 183.86 105.587 184.491 104.692C184.737 104.344 184.973 103.993 185.203 103.643C185.43 103.295 185.646 102.933 185.898 102.599C186.147 102.265 186.416 101.945 186.731 101.674C186.885 101.536 187.059 101.417 187.245 101.319C187.439 101.228 187.626 101.14 187.894 101.175L187.853 101.172C188.226 101.135 188.652 101.175 188.968 101.441C189.284 101.714 189.369 102.126 189.338 102.498L189.337 102.517L189.326 102.538C187.978 104.954 186.806 107.056 185.897 108.687L185.904 108.67C185.698 109.366 185.138 109.774 184.656 109.989C184.157 110.206 183.692 110.251 183.325 110.271C182.954 110.288 182.671 110.273 182.48 110.264C182.288 110.253 182.189 110.243 182.189 110.235C182.19 110.228 182.289 110.223 182.48 110.22C182.671 110.216 182.954 110.216 183.319 110.187C183.68 110.154 184.134 110.096 184.605 109.878C185.064 109.662 185.579 109.261 185.753 108.629L185.755 108.62L185.76 108.612C186.653 106.972 187.804 104.858 189.127 102.429L189.114 102.469C189.137 102.166 189.056 101.812 188.816 101.616C188.579 101.416 188.222 101.371 187.876 101.408L187.866 101.408L187.834 101.404C187.711 101.387 187.509 101.448 187.354 101.531C187.191 101.618 187.032 101.727 186.887 101.857C186.594 102.111 186.334 102.419 186.094 102.744C185.627 103.401 185.195 104.141 184.692 104.834C184.055 105.735 183.399 106.592 182.728 107.386L182.689 107.433L182.628 107.428C180.468 107.269 178.46 107.146 176.613 106.983C176.343 106.853 176.209 106.717 176.016 106.585C175.837 106.455 175.661 106.327 175.487 106.201C175.138 105.951 174.789 105.727 174.447 105.519C173.761 105.107 173.086 104.795 172.452 104.568C171.178 104.12 170.072 104.076 169.338 104.173C168.965 104.193 168.69 104.287 168.498 104.324C168.307 104.367 168.206 104.385 168.203 104.378Z" fill="#F57F62"/>
<path d="M196.517 102.483C196.529 102.495 196.43 102.632 196.24 102.872C196.05 103.112 195.77 103.454 195.419 103.872C194.718 104.708 193.736 105.853 192.641 107.107C191.526 108.342 190.6 109.548 189.786 110.293C189.384 110.669 189.03 110.944 188.765 111.104C188.5 111.265 188.335 111.318 188.33 111.306C188.321 111.287 188.469 111.206 188.712 111.026C188.954 110.845 189.284 110.556 189.664 110.169C190.436 109.404 191.331 108.192 192.451 106.951C193.548 105.695 194.552 104.567 195.288 103.758C195.656 103.354 195.957 103.029 196.169 102.809C196.38 102.588 196.504 102.472 196.517 102.483Z" fill="#F57F62"/>
<path d="M192.638 102.815C192.662 102.838 192.332 103.223 191.779 103.825C191.225 104.426 190.449 105.247 189.581 106.141C188.869 106.875 188.206 107.546 187.675 108.07L187.657 108.088L187.636 108.095C186.586 108.425 185.898 108.603 185.884 108.548C185.883 108.534 186.044 108.472 186.338 108.36C186.697 108.229 187.108 108.079 187.573 107.909L187.534 107.934C188.043 107.387 188.693 106.704 189.405 105.971C190.273 105.076 191.069 104.275 191.654 103.704C192.239 103.132 192.613 102.791 192.638 102.815Z" fill="#F57F62"/>
<path d="M135.576 72.1257C135.576 72.1257 145.74 74.7453 146.737 88.5589C147.305 96.4295 143.116 121.712 143.116 121.712L158.125 106.296L171.502 115.604C171.502 115.604 153.304 137.854 149.104 141.199C144.905 144.544 138.216 149.925 136.039 149.489C133.861 149.052 133.861 139.018 133.861 139.018V83.6091L135.576 72.1257Z" fill="#FFA1CF"/>
<path d="M62.5089 73.8175C62.5089 73.8175 53.4664 76.7902 53.835 94.4529C54.2041 112.115 53.9147 118.062 53.9147 118.062L40.3631 103.721L29.1055 116.137C29.1055 116.137 41.6996 134.848 50.5135 143.942C58.8182 152.511 66.2 145.07 68.5995 139.046C70.5431 134.165 72.1058 115.612 72.1058 115.612L62.5089 73.8175Z" fill="#FFA1CF"/>
<path d="M136.272 147.162L133.861 130.777V118.262C134.203 111.761 134.777 102.86 136.084 96.8514C136.32 95.7638 136.49 94.5849 136.607 93.3502C137.19 96.8203 136.912 100.488 136.366 103.947C135.55 109.115 136.414 114.889 136.378 120.112C136.315 129.199 139.001 138.456 136.272 147.162Z" fill="#FF76B9"/>
<path d="M60.6257 85.0644C60.6257 85.0644 66.6711 125.72 67.8411 129.28C69.0111 132.84 69.0111 143.332 69.0111 143.332C69.0111 143.332 62.6665 155.142 62.2766 163.354L138.678 163.511L133.714 129.775C133.543 128.516 133.532 124.639 133.601 123.37C133.922 117.43 134.381 104.684 136.084 96.8515C138.063 87.7439 135.398 72.1577 135.398 72.1577L112.577 66.5367C107.175 74.2984 93.6987 74.4031 88.3827 66.5367L62.6269 73.8176L60.6257 85.0644Z" fill="#FFA1CF"/>
<path d="M135.212 128.16C135.198 128.15 135.28 128.022 135.44 127.798C135.598 127.574 135.839 127.258 136.142 126.872C136.755 126.108 137.624 125.055 138.764 124.065C139.903 123.073 141.104 122.394 141.999 121.988C142.448 121.787 142.817 121.637 143.078 121.551C143.338 121.461 143.484 121.419 143.49 121.434C143.544 121.531 141.177 122.29 138.924 124.251C137.804 125.224 136.92 126.249 136.275 126.983C135.636 127.723 135.24 128.183 135.212 128.16Z" fill="#17282F"/>
<path d="M64.4653 127.3C64.4191 127.313 64.2414 126.473 63.6644 125.232C63.0959 123.996 62.0574 122.371 60.4664 121.023C58.8759 119.673 57.1029 118.913 55.791 118.554C54.4724 118.187 53.615 118.149 53.6201 118.102C53.6211 118.087 53.8351 118.083 54.2202 118.114C54.6059 118.144 55.1621 118.222 55.8353 118.387C57.1769 118.707 59.0003 119.456 60.6252 120.836C62.2507 122.214 63.2878 123.89 63.8228 125.161C64.0948 125.799 64.2626 126.335 64.355 126.71C64.4484 127.085 64.4799 127.297 64.4653 127.3Z" fill="#17282F"/>
<path d="M64.9532 105.27C64.9437 105.284 64.8212 105.216 64.6072 105.082C64.3922 104.949 64.0924 104.74 63.7299 104.47C63.0063 103.93 62.0545 103.114 61.106 102.112C60.158 101.109 59.383 100.13 58.8433 99.4078C58.3049 98.6847 57.9976 98.2194 58.0235 98.2001C58.0518 98.1789 58.4082 98.6069 58.98 99.3008C59.5527 99.9928 60.3442 100.949 61.2842 101.943C62.2242 102.935 63.1463 103.763 63.8378 104.334C64.5284 104.905 64.9753 105.238 64.9532 105.27Z" fill="#17282F"/>
<path d="M118.287 127.275C118.291 127.278 118.269 127.31 118.225 127.369C118.171 127.439 118.104 127.524 118.024 127.629C117.839 127.851 117.588 128.198 117.219 128.604C116.504 129.439 115.397 130.586 113.911 131.873C112.428 133.164 110.54 134.558 108.335 135.934C106.132 137.312 103.609 138.658 100.909 139.954C98.2049 141.245 95.5919 142.389 93.2273 143.452C90.8613 144.513 88.7437 145.494 86.9929 146.374C85.2412 147.252 83.8482 148.01 82.8988 148.558C82.4193 148.824 82.0583 149.049 81.806 149.19C81.691 149.254 81.5967 149.308 81.5194 149.351C81.4544 149.386 81.42 149.402 81.4176 149.399C81.4153 149.395 81.4454 149.372 81.5062 149.33C81.5802 149.281 81.6703 149.221 81.7801 149.148C82.0238 148.993 82.3779 148.755 82.8502 148.476C83.786 147.902 85.1695 147.118 86.9147 146.219C88.6584 145.318 90.7722 144.318 93.134 143.246C95.4948 142.171 98.104 141.021 100.803 139.732C103.497 138.439 106.015 137.103 108.216 135.742C110.418 134.382 112.307 133.009 113.798 131.741C115.291 130.476 116.413 129.353 117.147 128.54C117.527 128.145 117.789 127.809 117.986 127.598C118.074 127.499 118.146 127.419 118.206 127.353C118.256 127.299 118.284 127.273 118.287 127.275Z" fill="#17282F"/>
<path d="M62.4537 162.714C62.4509 162.714 62.4504 162.681 62.4523 162.615C62.4556 162.538 62.4598 162.442 62.465 162.319C62.4825 162.046 62.5065 161.662 62.5372 161.17C62.6729 160.175 62.8832 158.711 63.3994 156.921C64.3865 153.332 66.3249 148.39 69.2811 142.898L69.267 142.96C68.9634 138.536 68.5047 133.596 67.9758 128.4C66.9684 118.589 65.9105 109.722 65.1393 103.305C64.7509 100.107 64.436 97.5152 64.2168 95.7078C64.1112 94.8211 64.0287 94.1272 63.9707 93.6412C63.9462 93.4144 63.9269 93.2362 63.9122 93.1033C63.9005 92.9817 63.8962 92.9194 63.9005 92.9185C63.9047 92.918 63.917 92.9793 63.9372 93.1C63.9575 93.232 63.9848 93.4092 64.0197 93.635C64.0886 94.1196 64.1861 94.8112 64.3115 95.6955C64.5491 97.5006 64.8904 100.09 65.3114 103.284C66.1269 109.696 67.2121 118.561 68.22 128.375C68.7494 133.573 69.2005 138.516 69.4904 142.945L69.4923 142.978L69.4763 143.007C66.5135 148.47 64.5491 153.392 63.5295 156.957C62.9963 158.737 62.7663 160.189 62.6083 161.179C62.5626 161.668 62.5273 162.049 62.5018 162.321C62.4891 162.442 62.4787 162.539 62.4707 162.615C62.4627 162.681 62.457 162.715 62.4537 162.714Z" fill="#17282F"/>
<path d="M137.025 86.0148C137.029 86.0148 137.033 86.0831 137.035 86.2165C137.035 86.3608 137.035 86.5569 137.036 86.8077C137.03 87.3276 137.045 88.0956 136.996 89.0822C136.942 91.0579 136.738 93.9108 136.388 97.4252C136.042 100.94 135.532 105.114 135.016 109.753C134.503 114.39 133.988 119.499 133.825 124.879C133.651 130.261 134.178 135.38 134.868 139.991C135.547 144.607 136.348 148.735 136.968 152.211C137.6 155.685 138.065 158.506 138.327 160.464C138.469 161.442 138.549 162.204 138.605 162.721C138.631 162.971 138.651 163.166 138.666 163.309C138.678 163.442 138.683 163.51 138.678 163.511C138.674 163.511 138.662 163.444 138.641 163.312C138.62 163.17 138.592 162.975 138.556 162.727C138.484 162.213 138.389 161.452 138.232 160.478C137.941 158.526 137.451 155.712 136.797 152.243C136.156 148.771 135.337 144.645 134.645 140.024C133.941 135.41 133.405 130.271 133.58 124.872C133.743 119.479 134.266 114.366 134.792 109.727C135.32 105.088 135.848 100.918 136.215 97.4077C136.588 93.8981 136.817 91.0503 136.901 89.0784C136.964 88.0932 136.965 87.3267 136.987 86.8072C136.996 86.5569 137.004 86.3608 137.009 86.2165C137.016 86.0831 137.021 86.0148 137.025 86.0148Z" fill="#17282F"/>
<path d="M68.419 132.879C65.4421 124.044 63.7964 114.452 63.6611 104.983C65.3544 115.845 67.2401 127.452 67.8411 129.28C67.9872 129.726 68.1155 130.28 68.2277 130.908C68.2932 131.57 68.3568 132.227 68.419 132.879Z" fill="#FF76B9"/>
<path d="M68.2276 130.908C68.1154 130.28 67.9872 129.726 67.8411 129.28C67.24 127.452 65.3544 115.845 63.6611 104.983C63.6588 104.794 63.6564 104.603 63.655 104.414C63.6804 104.433 63.7054 104.451 63.7299 104.47C64.0924 104.74 64.3923 104.949 64.6072 105.082C64.8029 105.205 64.9221 105.272 64.9485 105.272C64.9509 105.272 64.9523 105.271 64.9532 105.27C64.9754 105.238 64.5285 104.905 63.8379 104.334C63.778 104.285 63.7167 104.233 63.6536 104.18C63.6371 101.037 63.7879 97.9088 64.1122 94.831C64.1443 95.0978 64.1792 95.3906 64.2169 95.7078C64.3206 96.5639 64.446 97.5958 64.5902 98.7852L67.8208 126.899C67.8727 127.397 67.9245 127.897 67.9759 128.4C68.0617 129.243 68.1456 130.08 68.2276 130.908Z" fill="#FF76B9"/>
<path d="M64.9485 105.272C64.9221 105.272 64.8029 105.205 64.6072 105.082C64.3923 104.949 64.0924 104.74 63.7299 104.47C63.7054 104.451 63.6804 104.433 63.655 104.414C63.6545 104.336 63.654 104.258 63.6536 104.18C63.7167 104.233 63.778 104.285 63.8379 104.334C64.5285 104.905 64.9754 105.238 64.9532 105.27C64.9523 105.271 64.9509 105.272 64.9485 105.272Z" fill="#0F191D"/>
<path d="M94.1596 152.222C93.6618 152.222 93.1626 152.201 92.6643 152.159C99.7854 149.628 105.594 145.084 111.383 139.766L116.604 135.029C114.702 140.07 111.75 143.691 107.599 147.127C103.834 150.243 99.0278 152.222 94.1596 152.222Z" fill="#FF76B9"/>
<path d="M104.789 145.624C104.744 145.573 108.345 142.27 112.833 138.246C117.321 134.221 120.995 131 121.041 131.05C121.086 131.101 117.485 134.404 112.996 138.429C108.509 142.452 104.834 145.674 104.789 145.624Z" fill="#17282F"/>
<path d="M117.593 45.856C117.593 47.4871 116.271 48.8094 114.64 48.8094C113.009 48.8094 111.687 47.4871 111.687 45.856C111.687 44.225 113.009 42.9027 114.64 42.9027C116.271 42.9027 117.593 44.225 117.593 45.856Z" fill="#33535F"/>
<path d="M135.181 84.6759C134.31 77.4554 133.439 70.2349 132.568 63.0138L113.878 57.3725C113.517 70.2702 111.259 84.7551 108.014 97.2432C114.902 99.4767 122.261 100.243 129.462 99.4758C129.78 95.9873 130.098 92.4989 130.416 89.0105C130.883 91.6396 131.35 94.2691 131.818 96.8986C133.78 95.7993 134.936 93.6096 135.327 91.3954C135.719 89.1807 135.45 86.9085 135.181 84.6759Z" fill="#17282F"/>
<path d="M120.553 99.5342C120.553 99.5342 120.567 99.4409 120.608 99.2618C120.651 99.0737 120.712 98.8102 120.791 98.4674C120.958 97.7608 121.201 96.7346 121.512 95.417C122.123 92.7648 123.028 88.9295 123.91 84.1447C124.796 79.3642 125.661 73.6205 125.944 67.1967C126.227 60.7832 125.835 53.6583 124.059 46.451C122.31 39.2446 119.25 32.7274 115.393 27.5947C114.904 26.9578 114.441 26.3139 113.918 25.7312C113.404 25.1415 112.926 24.5358 112.391 23.9932C112.131 23.7164 111.872 23.4416 111.615 23.1687C111.349 22.9047 111.085 22.6426 110.823 22.3828C110.305 21.8563 109.765 21.3693 109.247 20.8776C107.148 18.9359 105.099 17.2294 103.266 15.6271C101.431 14.0276 99.7945 12.5493 98.4396 11.1652C98.095 10.8253 97.7839 10.4765 97.4723 10.1517C97.1593 9.82832 96.8708 9.50683 96.603 9.18957C96.3324 8.87561 96.0736 8.57486 95.8266 8.28825C95.5937 7.99032 95.3722 7.707 95.1619 7.4383C94.7297 6.9108 94.402 6.40073 94.0994 5.97222C93.7916 5.54701 93.5639 5.16611 93.3824 4.8564C93.2023 4.55423 93.0642 4.32135 92.9657 4.15541C92.8733 3.99655 92.8313 3.91217 92.8313 3.91217C92.8313 3.91217 92.8879 3.98853 92.9873 4.14268C93.0906 4.30532 93.2358 4.53349 93.4243 4.83047C93.6124 5.135 93.8462 5.51118 94.1597 5.93074C94.4676 6.35359 94.8004 6.85799 95.2374 7.37984C95.4495 7.64525 95.6734 7.92573 95.9086 8.22035C96.1575 8.50367 96.4182 8.80113 96.6907 9.11179C96.9599 9.42575 97.2507 9.74442 97.5652 10.0645C97.8782 10.386 98.1907 10.732 98.5372 11.0686C99.8972 12.4395 101.539 13.906 103.38 15.4956C105.218 17.0889 107.275 18.7879 109.385 20.7282C109.906 21.2194 110.449 21.7059 110.97 22.2329C111.234 22.4931 111.499 22.7553 111.767 23.0197C112.026 23.2931 112.286 23.5684 112.549 23.8461C113.087 24.3896 113.57 24.9977 114.088 25.5894C114.614 26.1739 115.081 26.8197 115.573 27.4589C119.461 32.6105 122.542 39.1574 124.297 46.3921C126.08 53.6272 126.466 60.7785 126.17 67.2061C125.874 73.6455 124.99 79.3953 124.08 84.1767C123.176 88.9625 122.244 92.7931 121.605 95.4391C121.28 96.7614 121.021 97.7858 120.839 98.4792C120.75 98.8196 120.681 99.0812 120.632 99.2679C120.583 99.4451 120.553 99.5342 120.553 99.5342Z" fill="#33535F"/>
</svg>
