<svg width="100" height="100" viewBox="0 0 100 100" fill="none" xmlns="http://www.w3.org/2000/svg">
<g clip-path="url(#clip0_4_3)">
<path d="M100.239 42.3804C100.239 41.7423 100.073 41.114 99.7763 40.5496L87.9721 18.1474V3.78007C87.9721 1.60934 86.2403 0 84.0695 0H17.252C15.0814 0 13.2547 1.60934 13.2547 3.78007V18.1446L1.45669 40.5449C1.15794 41.1107 1.00707 41.7407 1.00707 42.3805C1.00707 45.5112 2.66573 48.2726 5.04526 49.8868V90.835C5.04526 95.8221 9.08613 100 14.0255 100H87.21C92.1968 100 96.241 95.822 96.241 90.8349V49.8507C98.561 48.2315 100.239 45.4872 100.239 42.3804ZM80.1196 7.85247V15.2885H21.1666V7.85247H80.1196ZM19.6211 23.2005H81.6969L92.1967 43.0697C91.9865 43.3861 91.6222 43.5626 91.2178 43.5626L10.0287 43.5439C9.6323 43.5439 9.28286 43.4032 9.08036 43.0908L19.6211 23.2005ZM58.7038 92.1475H42.3445V73.9798C42.3445 69.5029 46.0289 65.8608 50.528 65.8608C55.023 65.8608 58.7038 69.503 58.7038 73.9797V92.1475ZM87.21 92.1475H66.5563V73.9797C66.5563 65.1682 59.3575 57.9998 50.528 57.9998C41.6943 57.9998 34.492 65.1685 34.492 73.9798V92.1475H14.0255C13.4207 92.1475 12.8977 91.4876 12.8977 90.835V51.3858L88.329 51.3855V90.8349C88.329 91.4654 87.8402 92.1475 87.21 92.1475Z" fill="black"/>
</g>
<defs>
<clipPath id="clip0_4_3">
<rect width="100" height="100" fill="white"/>
</clipPath>
</defs>
</svg>
