<svg width="250" height="251" viewBox="0 0 250 251" fill="none" xmlns="http://www.w3.org/2000/svg">
<path d="M107.495 149.466C107.495 149.466 140.51 77.3326 187.579 92.2136C234.647 107.094 244.106 127.295 249.132 132.499C254.159 137.701 236.543 133.764 216.908 140.998C197.272 148.232 189.946 164.944 156.729 156.592C123.513 148.241 101.894 165.775 101.894 165.775L107.495 149.466Z" fill="#69BC63"/>
<path d="M102.198 165.988C102.199 165.988 102.322 165.811 102.572 165.473C104.449 162.935 113.314 151.452 127.71 140.616C142.109 129.778 162.027 119.593 186.027 119.594C196.627 119.594 208.028 121.579 220.114 126.378C220.305 126.454 220.521 126.36 220.597 126.169C220.673 125.978 220.58 125.761 220.389 125.686C208.219 120.854 196.72 118.849 186.027 118.849C160.194 118.85 139.085 130.537 124.441 142.207C109.796 153.879 101.603 165.543 101.589 165.561C101.471 165.729 101.512 165.961 101.68 166.079C101.848 166.198 102.08 166.157 102.198 165.988Z" fill="#97D889"/>
<path d="M149.88 99.9056C149.88 99.9056 135.267 39.8862 171.218 26.278C207.168 12.6698 222.695 20.4571 228.277 21.2125C233.859 21.9687 221.192 28.0583 212.678 41.9523C204.165 55.8463 207.747 69.5952 183.414 80.5129C159.081 91.4298 154.324 112.577 154.324 112.577L149.88 99.9056Z" fill="#97D889"/>
<path d="M154.695 112.557C154.695 112.556 154.684 112.359 154.673 111.976C154.662 111.593 154.651 111.026 154.651 110.296C154.65 104.527 155.358 88.554 162.335 72.1808C169.318 55.8047 182.532 39.0378 207.61 31.5474C207.807 31.4886 207.919 31.281 207.86 31.0845C207.801 30.8873 207.593 30.7756 207.397 30.8344C182.081 38.3873 168.682 55.373 161.65 71.8891C154.614 88.4074 153.907 104.466 153.906 110.296C153.906 111.771 153.952 112.592 153.952 112.598C153.964 112.803 154.139 112.96 154.345 112.949C154.549 112.938 154.706 112.761 154.695 112.557Z" fill="#69BC63"/>
<path d="M154.523 175.309C154.523 175.309 178.653 146.026 199.878 153.707C221.103 161.388 224.714 170.866 226.843 173.352C228.973 175.838 220.967 173.716 211.602 176.708C202.238 179.701 198.211 187.277 183.151 182.848C168.091 178.418 147.582 189.943 147.582 189.943L154.523 175.309Z" fill="#97D889"/>
<path d="M157.706 186.358C157.707 186.358 157.766 186.285 157.888 186.14C158.806 185.057 163.15 180.13 169.939 175.483C176.729 170.835 185.954 166.474 196.641 166.475C201.953 166.475 207.63 167.55 213.566 170.207C213.754 170.291 213.974 170.207 214.058 170.019C214.142 169.832 214.058 169.612 213.871 169.527C207.841 166.828 202.054 165.73 196.641 165.731C185.02 165.732 175.145 170.78 168.178 175.812C161.211 180.846 157.142 185.874 157.128 185.89C156.998 186.05 157.023 186.284 157.183 186.413C157.343 186.543 157.577 186.518 157.706 186.358Z" fill="#69BC63"/>
<path d="M122.284 143.447C122.284 143.447 139.081 74.4575 97.7578 58.8159C56.4345 43.1736 38.5884 52.1242 32.172 52.9928C25.755 53.8614 40.3158 60.8619 50.1015 76.8317C59.8864 92.8023 55.7691 108.606 83.7387 121.155C111.708 133.704 117.176 158.011 117.176 158.011L122.284 143.447Z" fill="#69BC63"/>
<path d="M117.549 158.032C117.549 158.026 117.601 157.084 117.601 155.389C117.6 148.692 116.787 130.24 108.704 111.265C100.626 92.291 85.2371 72.7829 56.1563 64.1055C55.9598 64.0467 55.7522 64.1591 55.6934 64.3556C55.6346 64.5528 55.7469 64.7597 55.9434 64.8185C84.7876 73.4334 99.9893 92.7226 108.019 111.556C116.044 130.388 116.858 148.753 116.857 155.389C116.857 156.229 116.844 156.881 116.831 157.322C116.818 157.764 116.805 157.99 116.805 157.991C116.794 158.196 116.951 158.372 117.156 158.383C117.361 158.395 117.537 158.238 117.549 158.032Z" fill="#97D889"/>
<path d="M122.662 155.951C122.662 155.951 105.359 87.2448 61.6072 92.6832C17.8549 98.1223 6.27307 114.331 1.01459 118.086C-4.24382 121.841 11.8664 121.239 27.9387 130.776C44.0112 140.313 47.737 156.178 78.2647 154.228C108.792 152.278 124.937 171.183 124.937 171.183L122.662 155.951Z" fill="#97D889"/>
<path d="M125.275 171.028C125.263 171.005 118.854 157.021 105.55 143.022C92.2499 129.026 72.0266 115.002 44.4336 115.002C39.0235 115.002 33.3321 115.54 27.3556 116.724C27.1547 116.763 27.0229 116.959 27.0631 117.161C27.1033 117.362 27.2991 117.493 27.5008 117.454C33.4303 116.28 39.0727 115.746 44.4336 115.746C71.7602 115.746 91.7885 129.626 105.01 143.535C111.619 150.488 116.519 157.444 119.766 162.659C121.388 165.267 122.598 167.44 123.401 168.959C123.802 169.718 124.102 170.314 124.302 170.72C124.501 171.125 124.598 171.338 124.598 171.338C124.684 171.524 124.905 171.607 125.092 171.521C125.278 171.435 125.36 171.215 125.275 171.028Z" fill="#69BC63"/>
<path d="M126.594 171.606C126.594 171.606 99.8997 136.029 76.1233 148.616C52.3469 161.204 49.6571 172.989 47.5567 176.277C45.4557 179.565 54.5521 175.732 66.1017 177.709C77.6505 179.687 83.6598 187.961 100.7 180.235C117.739 172.508 131.617 179.832 131.617 179.832L126.594 171.606Z" fill="#69BC63"/>
<path d="M131.87 179.559C131.838 179.54 112.95 161.885 88.7028 161.872C80.3297 161.871 71.3211 163.989 62.2708 169.671C62.0966 169.781 62.0438 170.01 62.1532 170.184C62.2626 170.358 62.4918 170.411 62.666 170.301C71.5995 164.695 80.4548 162.617 88.7028 162.616C100.642 162.615 111.314 166.984 118.999 171.361C122.841 173.549 125.936 175.738 128.068 177.379C129.134 178.199 129.96 178.882 130.517 179.359C130.796 179.597 131.009 179.785 131.151 179.911C131.293 180.039 131.362 180.104 131.363 180.104C131.512 180.244 131.748 180.236 131.888 180.086C132.029 179.935 132.021 179.7 131.87 179.559Z" fill="#97D889"/>
<path d="M141.104 134.937L177.145 151.958L225.358 67.3691L177.491 44.7634L141.104 134.937Z" fill="#FFA1CF"/>
<path d="M181.231 36.8437L229.098 59.4494L225.358 67.3691L177.491 44.7634L181.231 36.8437Z" fill="#FF92C7"/>
<path d="M133.001 163.398C135.957 164.795 157.216 174.834 160.314 176.297C163.411 177.76 165.69 176.213 166.781 173.903C167.873 171.593 177.145 151.958 177.145 151.958L141.668 135.203C141.668 135.203 132.238 155.168 131.225 157.313C130.213 159.458 130.044 162.002 133.001 163.398Z" fill="#FF92C7"/>
<path d="M167.249 172.912L166.781 173.903C165.69 176.213 163.411 177.76 160.314 176.297L133.001 163.398C130.044 162.002 130.213 159.458 131.225 157.313L131.771 156.158L167.249 172.912Z" fill="#FF65B1"/>
<path d="M154.824 167.045C156.276 163.97 155.327 160.473 152.702 159.234C150.079 157.995 146.776 159.483 145.323 162.557L154.824 167.045Z" fill="#FF65B1"/>
<mask id="mask0_7_554" style="mask-type:luminance" maskUnits="userSpaceOnUse" x="222" y="66" width="3" height="1">
<path d="M224.339 66.8883L222.746 66.1358L224.339 66.8875V66.8883Z" fill="white"/>
</mask>
<g mask="url(#mask0_7_554)">
<path d="M222.746 66.8883H224.339V66.1359H222.746V66.8883Z" fill="#7994D2"/>
</g>
<path d="M224.339 66.8875L222.746 66.1358L226.698 59.8297L224.339 66.8883" fill="#FF6FB5"/>
<path d="M219.993 64.8356L218.399 64.0831V64.0824L219.993 64.8356Z" fill="#7994D2"/>
<path d="M219.993 64.8356L218.399 64.0824L222.352 57.7769L219.993 64.8356Z" fill="#FF6FB5"/>
<path d="M215.647 62.7829L214.053 62.0304L218.006 55.725L215.647 62.7829Z" fill="#FF6FB5"/>
<path d="M211.301 60.7309L209.83 60.0358L209.708 59.9785L213.661 53.6723L211.301 60.7309Z" fill="#FF6FB5"/>
<path d="M206.956 58.6783L205.362 57.9258L209.315 51.6204L206.956 58.6783Z" fill="#FF6FB5"/>
<path d="M202.61 56.6263L201.796 56.2423L201.016 55.8738L204.969 49.5677L202.61 56.6263Z" fill="#FF6FB5"/>
<path d="M198.265 54.5744L198.195 54.5409L196.671 53.8212L200.623 47.5158L198.265 54.5744Z" fill="#FF6FB5"/>
<path d="M193.918 52.5217L192.325 51.7692L193.918 52.5209V52.5217Z" fill="#7994D2"/>
<path d="M193.918 52.5209L192.325 51.7692L196.277 45.4623L193.918 52.5217" fill="#FF6FB5"/>
<path d="M189.572 50.469L187.979 49.7165L191.931 43.4103L189.572 50.469Z" fill="#FF6FB5"/>
<path d="M185.227 48.4171L183.633 47.6639L187.585 41.3577L185.227 48.4171Z" fill="#FF6FB5"/>
<path d="M180.881 46.3643L179.288 45.6119L183.24 39.3057L180.881 46.3643Z" fill="#FF6FB5"/>
<path d="M148.229 173.162L210.434 112.758L218.946 122.05L152.888 178.316C148.251 182.266 143.858 177.406 148.229 173.162Z" fill="#FFA1CF"/>
<path d="M210.434 112.758L220.191 96.0771C221.231 94.299 223.449 93.5971 225.322 94.4538L244.244 103.1C247.365 104.527 247.371 108.959 244.254 110.395L218.946 122.05L210.434 112.758Z" fill="#FFA1CF"/>
<path d="M199.247 123.621L207.072 132.163L218.946 122.05L210.434 112.758L199.247 123.621Z" fill="#FF92C7"/>
<path d="M57.6558 187.089C63.5772 177.557 84.2836 172.409 99.4934 169.847C109.406 168.177 116.746 159.726 116.899 149.676L117.043 140.238L125.66 143.279C127.075 143.778 128.619 143.778 130.034 143.279L138.652 140.238L138.806 150.363C138.953 160.016 145.989 168.159 155.515 169.732C170.78 172.254 192.028 177.412 198.039 187.089C203.329 195.602 203.949 201.516 203.277 205.276C202.727 208.356 199.961 210.543 196.832 210.543H129.022H126.672H58.8623C55.7334 210.543 52.9677 208.356 52.4169 205.276C51.7456 201.516 52.3663 195.602 57.6558 187.089Z" fill="#F89E5F"/>
<path d="M138.917 152.19C138.853 151.588 138.815 150.978 138.806 150.363L138.756 147.064C138.829 150.612 138.917 152.19 138.917 152.19C138.918 152.19 138.917 152.19 138.917 152.19Z" fill="#574C5A"/>
<path d="M116.991 143.647C116.987 143.644 116.986 143.643 116.986 143.643L117.037 140.291C117.039 140.292 117.04 140.293 117.042 140.294L116.991 143.647Z" fill="#8F9655"/>
<path d="M136.172 152.393C125.764 152.391 117.22 143.878 116.991 143.647L117.042 140.294C121.859 143.463 126.112 145.415 128.208 146.207C129.165 146.568 130.169 146.752 131.176 146.752C131.842 146.752 132.511 146.672 133.168 146.509C134.567 146.165 136.445 145.529 138.71 144.356C138.724 145.362 138.739 146.264 138.756 147.064L138.806 150.363C138.815 150.978 138.853 151.588 138.917 152.19C137.991 152.329 137.075 152.393 136.172 152.393Z" fill="#C07941"/>
<path d="M85.3694 81.5712C88.6211 73.8472 90.2206 80.0686 91.846 81.5251C91.7865 79.2484 91.782 76.8987 91.8431 74.4672C91.9406 70.5739 95.1394 67.4993 99.0334 67.4346C107.488 67.2939 132.002 55.0038 145.005 38.0017C146.984 45.6126 145.005 51.6531 161.319 67.0126C163.969 69.5074 167.293 71.1403 167.348 74.7798C167.379 76.8741 167.38 79.3057 167.324 81.9657C168.509 80.7161 170.337 69.4508 173.955 78.0412C177.968 87.5745 171.654 104.123 165.823 101.253C164.289 111.925 161.329 122.671 155.756 129.501C145.62 141.926 137.302 145.491 133.168 146.509C131.516 146.917 129.799 146.808 128.208 146.207C121.505 143.673 92.7183 129.274 94.0617 101.125C88.2416 104.402 81.2953 91.246 85.3694 81.5712Z" fill="#F89E5F"/>
<path d="M124.814 199.046C124.798 199.046 124.783 199.044 124.766 199.043C124.563 199.017 124.419 198.83 124.445 198.626C124.445 198.626 124.45 198.586 124.458 198.505C124.467 198.424 124.478 198.304 124.49 198.154C124.513 197.851 124.536 197.425 124.536 196.931C124.537 196.047 124.461 194.946 124.188 193.972C123.917 192.993 123.453 192.168 122.736 191.751C121.882 191.248 120.603 190.878 119.03 190.645C117.456 190.411 115.588 190.308 113.542 190.308C113.539 190.308 113.536 190.308 113.532 190.308C102.351 190.308 85.906 193.362 81.9807 194.126C81.4195 194.235 81.1151 194.297 81.1144 194.297C81.0891 194.302 81.0645 194.304 81.0399 194.304C80.8665 194.304 80.7117 194.183 80.6752 194.006C80.6343 193.805 80.7646 193.608 80.9662 193.567C80.9789 193.567 100.63 189.566 113.542 189.564C115.613 189.564 117.513 189.667 119.139 189.909C120.766 190.152 122.12 190.529 123.113 191.11C124.078 191.679 124.606 192.7 124.906 193.772C125.205 194.849 125.279 196.005 125.28 196.931C125.28 197.965 125.184 198.71 125.183 198.721C125.159 198.909 124.999 199.046 124.814 199.046Z" fill="#C07941"/>
<path d="M127.847 199.214C127.646 199.214 127.481 199.054 127.475 198.852C127.475 198.849 127.473 198.779 127.473 198.651C127.473 198.171 127.499 196.891 127.755 195.462C128.013 194.033 128.487 192.448 129.459 191.352C130.159 190.579 131.341 190.121 132.871 189.818C134.403 189.52 136.296 189.396 138.423 189.395C150.954 189.398 171.684 193.736 171.697 193.736C171.898 193.779 172.028 193.976 171.985 194.177C171.949 194.353 171.794 194.473 171.621 194.473C171.596 194.473 171.571 194.47 171.545 194.465C171.544 194.465 171.223 194.398 170.632 194.28C170.042 194.161 169.184 193.992 168.116 193.789C165.98 193.384 163.002 192.842 159.635 192.301C152.904 191.219 144.612 190.139 138.423 190.139C138.421 190.139 138.419 190.139 138.416 190.139C136.322 190.139 134.47 190.264 133.014 190.549C131.553 190.828 130.506 191.286 130.014 191.847C129.199 192.753 128.727 194.229 128.487 195.593C128.244 196.955 128.217 198.2 128.218 198.651C128.218 198.771 128.219 198.832 128.219 198.832C128.224 199.038 128.063 199.209 127.857 199.214C127.854 199.214 127.851 199.214 127.847 199.214Z" fill="#C07941"/>
<path d="M104.172 94.4761C105.99 95.8597 110.358 98.0746 119.825 98.2592C120.418 98.2711 120.549 99.1025 119.984 99.2848C117.002 100.249 112.084 101.317 108.037 99.683C105.054 98.478 103.85 96.4975 103.365 95.076C103.196 94.5818 103.757 94.159 104.172 94.4761Z" fill="black"/>
<path d="M121.854 91.9278C118.018 91.3003 105.258 89.5282 101.078 92.9459C101.078 92.9459 102.675 88.2042 107.483 87.812C114.766 87.2173 121.249 87.9653 123.252 89.0936C124.053 89.5446 124.165 90.1192 124.013 90.6461C123.749 91.5564 122.789 92.0811 121.854 91.9278Z" fill="black"/>
<path d="M153.169 94.4761C151.352 95.8597 146.983 98.0746 137.516 98.2592C136.924 98.2711 136.793 99.1025 137.357 99.2848C140.339 100.249 145.258 101.317 149.304 99.683C152.288 98.478 153.492 96.4975 153.976 95.076C154.145 94.5818 153.585 94.159 153.169 94.4761Z" fill="black"/>
<path d="M136.403 91.9278C140.239 91.3003 152.999 89.5282 157.179 92.9459C157.179 92.9459 155.582 88.2042 150.774 87.812C143.491 87.2173 137.008 87.9653 135.006 89.0936C134.204 89.5446 134.092 90.1192 134.244 90.6461C134.508 91.5564 135.468 92.0811 136.403 91.9278Z" fill="black"/>
<path d="M119.059 128.891C119.059 128.891 122.286 127.366 124.698 126.242C125.745 125.753 126.95 125.686 128.052 126.046L129.402 126.486C129.582 126.546 129.776 126.546 129.957 126.486L131.307 126.046C132.409 125.686 133.614 125.753 134.661 126.242C137.073 127.366 139.986 128.933 139.986 128.933C139.986 128.933 138.62 130.575 135.965 132.706C132.36 135.599 126.312 135.588 122.699 132.706C119.857 130.438 119.059 128.891 119.059 128.891Z" fill="black"/>
<path d="M127.575 129.559C128.841 130.115 129.383 130.037 129.383 130.037C129.383 130.037 129.926 130.115 131.191 129.559C132.456 129.002 135.611 129.432 135.611 129.432C133.1 129.234 132.348 130.074 130.693 130.535C129.614 130.835 129.095 130.913 128.102 130.535C126.56 129.948 125.327 129.199 123.434 129.546C123.434 129.546 126.31 129.002 127.575 129.559Z" fill="white"/>
<path d="M132.173 57.8156C128.81 62.739 115.496 79.9785 92.4578 82.5164L97.9341 62.7115L142.354 46.0093C142.354 46.0093 180.436 67.4986 168.436 86.1671C168.436 86.1671 140.767 84.2953 133.424 58.0397C133.262 57.4606 132.513 57.3192 132.173 57.8156Z" fill="black"/>
<path d="M151.009 63.7557C144.767 54.9086 132.964 51.9129 123.204 56.5995C112.81 61.5906 99.2761 70.3819 95.5935 86.8742C89.7636 112.984 103.788 127.983 103.788 127.983C103.788 127.983 90.4201 120.505 81.5499 96.1135C72.6804 71.7216 82.6588 57.678 79.7018 51.0257L79.2821 50.0812C77.8218 46.7945 78.5527 42.9362 81.1472 40.4452C85.0368 36.7097 89.9958 31.1679 89.3111 27.7427C88.2021 22.1987 83.028 17.3944 97.8114 9.63317C112.594 1.87268 145.856 -8.47563 158.052 11.8511C170.247 32.1771 160.269 22.5686 170.247 41.0473C180.227 59.526 177.618 112.821 158.315 119.076C158.315 119.076 172.021 93.5376 151.009 63.7557Z" fill="#ECF6FC"/>
<path d="M140.285 54.8431C142.182 52.812 143.548 50.8471 144.422 48.9738C142.97 51.6881 141.188 53.8338 140.285 54.8431Z" fill="#CBE3EF"/>
<path d="M140.284 54.8431C140.088 55.0537 139.906 55.2621 139.697 55.4734C139.697 55.4734 139.921 55.2494 140.284 54.8431Z" fill="#CBE3EF"/>
<path d="M125.159 25.8947C104.752 22.3319 93.9396 21.6606 87.5508 20.9572C87.6937 23.2675 88.851 25.4415 89.311 27.7427C89.311 27.7427 113.354 29.2209 126.833 29.59C138.2 29.9019 149.618 37.8544 144.422 48.9738C148.342 41.6501 149.853 30.2048 125.159 25.8947Z" fill="#CBE3EF"/>
<path d="M79.5858 42.4927C78.3302 44.7924 78.1791 47.5984 79.2821 50.0812L79.7019 51.0257C79.809 51.2661 79.8946 51.5192 79.9691 51.7789C108.291 50.9587 120.724 44.7426 120.724 44.7426C101.403 46.9985 85.6359 43.9559 79.5858 42.4927Z" fill="#CBE3EF"/>
<path d="M175.863 69.9495C175.821 66.8243 175.648 63.7542 175.347 60.8046C171.669 58.187 166.542 55.4801 161.008 55.4734C161.008 55.4734 171.295 62.8469 175.863 69.9495Z" fill="#CBE3EF"/>
<path d="M163.746 22.5068C161.063 27.1295 156.303 32.7993 148.812 33.6559C148.812 33.6559 154.281 36.997 165.767 31.2862C164.594 27.5306 165.506 26.7878 163.746 22.5068Z" fill="#CBE3EF"/>
<path d="M118.369 102.4C109.903 103.561 101.221 102.301 98.7713 93.586C96.3227 84.8714 115.024 84.3325 122.037 86.08C125.383 86.9144 126.407 89.3258 126.567 91.6204C125.99 95.786 125.292 98.72 125.29 98.7244C123.524 100.425 121.33 101.994 118.369 102.4ZM134.612 65.1356C133.847 63.3077 131.422 62.9378 130.156 64.462C125.732 69.7917 115.692 79.6883 99.8684 83.2861C98.4862 83.6001 97.4019 87.6095 97.1555 88.9395C96.2691 93.7326 96.7082 107.32 99.8445 115.829C101.731 120.945 103.806 125.712 109.576 131.78C115.797 138.322 123.113 143.279 129.129 144.117C138.643 145.443 139.885 137.036 129.522 136.463C119.16 135.889 117.518 127.983 117.518 127.983C117.518 127.983 124.625 123.866 127.531 123.986C130.438 124.106 131.617 121.907 133.042 118.268C134.355 114.919 136.41 100.459 133.497 95.3827C130.262 85.8307 133.61 87.8514 137.511 83.5227C140.389 80.3291 136.994 70.8315 134.612 65.1356Z" fill="white"/>
<path d="M129.718 117.433C128.796 117.432 127.94 117.167 127.293 116.726C126.652 116.288 126.194 115.646 126.192 114.898C126.19 114.322 126.476 113.738 127.036 113.232C127.804 112.543 128.314 111.23 128.601 109.968C128.893 108.709 128.98 107.511 129.003 107.048C129.009 106.917 129.011 106.847 129.011 106.847C129.015 106.645 129.181 106.483 129.383 106.483C129.386 106.483 129.389 106.483 129.391 106.483C129.597 106.489 129.76 106.658 129.755 106.864C129.754 106.877 129.727 108.104 129.445 109.574C129.156 111.044 128.642 112.764 127.537 113.783C127.087 114.195 126.937 114.57 126.936 114.898C126.934 115.321 127.204 115.761 127.714 116.111C128.218 116.458 128.938 116.689 129.713 116.689C129.714 116.689 129.716 116.689 129.718 116.689C129.926 116.689 130.14 116.672 130.354 116.638C130.374 116.635 130.394 116.633 130.414 116.633C130.593 116.633 130.751 116.763 130.781 116.946C130.814 117.149 130.675 117.34 130.473 117.373C130.218 117.414 129.966 117.433 129.718 117.433Z" fill="#C1A68C"/>
<path d="M63.4283 153.852L93.7402 129.514L97.1474 134.021L65.2905 156.349C63.054 157.917 61.2982 155.563 63.4283 153.852Z" fill="#FF92C7"/>
<path d="M93.7402 129.514L103.293 116.231L112.636 128.587L97.1475 134.021L93.7402 129.514Z" fill="white"/>
<path d="M88.2891 133.891L91.4209 138.034L97.1474 134.021L93.7401 129.514L88.2891 133.891Z" fill="#FFA1CF"/>
<path d="M101.94 118.112C101.94 118.112 103.748 120.437 101.94 122.191C100.132 123.946 98.5034 126.517 101.525 126.405C104.547 126.294 106.896 127.516 107.178 128.643C107.459 129.771 106.144 130.294 107.178 130.502C108.211 130.71 112.636 128.587 112.636 128.587L103.293 116.231L101.94 118.112Z" fill="#ECF6FC"/>
<path d="M198.704 224.99C194.548 224.99 191.179 225.659 191.179 226.483V244.187C191.179 247.21 193.631 249.663 196.656 249.663H201.104C203.934 249.663 206.228 247.369 206.228 244.539V226.483C206.228 225.659 202.859 224.99 198.704 224.99Z" fill="#FF92C7"/>
<path d="M198.704 210.736C195.876 210.736 193.583 211.191 193.583 211.751V226.326C193.583 227.028 194.069 227.638 194.755 227.793H194.755C197.354 228.38 200.052 228.38 202.652 227.793C203.338 227.638 203.824 227.028 203.824 226.326V211.751C203.824 211.191 201.532 210.736 198.704 210.736Z" fill="#FFA1CF"/>
<path d="M197.04 192.787L196.941 192.95C195.342 195.573 194.535 198.603 194.535 201.675V212.174C194.535 212.174 199.057 213.763 202.479 212.174V199.925C202.479 197.477 201.893 195.048 200.665 192.93L200.592 192.805C199.798 191.468 197.858 191.463 197.04 192.787Z" fill="#FF92C7"/>
<path d="M67.8926 216.888C70.4692 221.94 76.998 227.156 88.229 227.156C99.4608 227.156 107.848 222.514 108.565 216.888C109.564 209.036 100.511 205.68 91.797 206.777C82.6291 207.932 85.6121 196.687 88.229 194.673C71.2492 198.163 65.668 212.525 67.8926 216.888Z" fill="#ECF6FC"/>
<path d="M90.041 210.915C95.6468 211.77 107.088 216.552 88.2287 227.156C99.4605 227.156 107.848 222.514 108.564 216.888C109.564 209.036 100.511 205.68 91.7967 206.777C82.6288 207.932 85.6119 196.687 88.2287 194.673C74.6049 198.029 82.1212 209.707 90.041 210.915Z" fill="#FFB7DA"/>
<path d="M67.0137 216.552H109.564V221.474H67.0137V216.552Z" fill="#FF92C7"/>
<path d="M66.899 216.552H109.68C110.359 216.552 110.91 217.103 110.91 217.783C110.91 218.462 110.359 219.013 109.68 219.013H66.899C66.2195 219.013 65.668 218.462 65.668 217.783C65.668 217.103 66.2195 216.552 66.899 216.552Z" fill="#FF92C7"/>
<path d="M88.9815 250.199H90.0532C101.572 250.199 110.91 240.862 110.91 229.343V221.474H65.668V226.886C65.668 239.762 76.1056 250.199 88.9815 250.199Z" fill="#FFA1CF"/>
<path d="M56.704 241.452H42.059C38.8772 241.452 36.2976 238.873 36.2976 235.691V206.143C36.2976 202.961 38.8772 200.381 42.059 200.381H56.704C59.8857 200.381 62.4654 202.961 62.4654 206.143V235.691C62.4654 238.873 59.8857 241.452 56.704 241.452Z" fill="#FFA1CF"/>
<path d="M55.6402 200.381H43.123V197.979H55.6402V200.381Z" fill="#B1C1E8"/>
<path d="M56.5386 189.337H53.9016V181.34C53.9016 178.843 51.878 176.82 49.3817 176.82C46.8854 176.82 44.8618 178.843 44.8618 181.34V189.337H42.2241C40.7184 189.337 39.4971 190.558 39.4971 192.064V195.252C39.4971 196.759 40.7184 197.979 42.2241 197.979H56.5386C58.045 197.979 59.2656 196.759 59.2656 195.252V192.064C59.2656 190.558 58.045 189.337 56.5386 189.337Z" fill="#FF92C7"/>
<path d="M62.4654 227.446H36.2976V215.933H62.4654V227.446Z" fill="#FF92C7"/>
</svg>
